<svg aria-hidden="true" style="position:absolute;width:0;height:0" xmlns="http://www.w3.org/2000/svg" overflow="hidden">
  <defs>
    <!-- Antenna icon -->
    <symbol id="antenna" viewBox="0 0 64 64">
        <path d="M61.5463 44.1952L44.6599 27.1851L46.534 17.9541C47.0176 18.1429 47.5318 18.2416 48.0508 18.2453H48.0636C50.4482 18.2735 52.404 16.3633 52.4323 13.9788C52.4606 11.5943 50.5503 9.6384 48.1658 9.61013C45.7812 9.582 43.8254 11.4921 43.7971 13.8767C43.7911 14.3869 43.8755 14.8941 44.0466 15.3749L34.1266 16.5856L17.9452 0.32C17.7467 0.117467 17.4757 0.00226667 17.1921 0C16.9121 0.00146667 16.644 0.112933 16.4455 0.3104L13.4204 3.3184C13.004 3.73493 13.004 4.41013 13.4204 4.82667L15.0481 6.47787C8.74201 18.0737 10.7903 32.4335 20.0871 41.8037C20.1724 41.8853 20.2713 41.9513 20.3793 41.9989C20.3121 42.3599 20.2771 42.7261 20.2748 43.0933V55.4667H7.47481C4.53081 55.4701 2.14495 57.856 2.14148 60.8V62.9333C2.14148 63.5224 2.61908 64 3.20815 64H52.2748C52.8639 64 53.3415 63.5224 53.3415 62.9333V60.8C53.338 57.856 50.9522 55.4701 48.0082 55.4667H35.2082V49.9829C37.2134 50.4035 39.2564 50.6179 41.3052 50.6229C46.2215 50.6176 51.0595 49.392 55.3852 47.056L57.0215 48.7019C57.22 48.9044 57.491 49.0196 57.7746 49.0219C58.0546 49.0204 58.3227 48.9089 58.5212 48.7115L61.5463 45.7035C61.9627 45.2869 61.9627 44.6117 61.5463 44.1952ZM46.5596 12.4661C47.395 11.6352 48.7458 11.6389 49.5766 12.4743C50.4075 13.3096 50.4038 14.6604 49.5684 15.4912C49.1686 15.8889 48.6275 16.1121 48.0635 16.112H48.0571C46.879 16.1059 45.9287 15.1459 45.9348 13.9676C45.9378 13.4036 46.1639 12.8639 46.5638 12.4661H46.5596ZM44.0487 19.4752L42.8519 25.3664L40.5009 23.0016L44.0487 19.4752ZM42.837 17.6715L38.997 21.4891L36.0263 18.5024L42.837 17.6715ZM48.0082 57.6C49.7755 57.6 51.2082 59.0327 51.2082 60.8V61.8667H4.27481V60.8C4.27481 59.0327 5.70748 57.6 7.47481 57.6H48.0082ZM33.0748 53.3333V55.4667H22.4081V53.3333H33.0748ZM22.4081 51.2V43.0933C22.4081 40.5056 24.8007 38.4 27.7415 38.4C30.6823 38.4 33.0748 40.5056 33.0748 43.0933V51.2H22.4081ZM35.2082 47.808V43.0933C35.2082 39.3291 31.8588 36.2667 27.7415 36.2667C25.0793 36.2259 22.59 37.5809 21.1793 39.8389C13.0639 31.2913 11.2364 18.5485 16.6221 8.06467L53.8258 45.4816C48.081 48.404 41.4955 49.2268 35.2082 47.808ZM57.7863 46.4405L56.2834 44.9291L17.1815 5.59147L15.6721 4.07893L17.1815 2.57493L33.0513 18.5344C33.0588 18.5344 33.0631 18.5483 33.0706 18.5536L59.2999 44.9365L57.7863 46.4405Z" fill="#2E2F42"/>
        <path d="M27.7511 40.5333H27.7415C25.9742 40.5306 24.5394 41.9612 24.5367 43.7285C24.534 45.4958 25.9646 46.9306 27.7319 46.9333H27.7415C29.5088 46.936 30.9436 45.5054 30.9463 43.7381C30.9489 41.9708 29.5184 40.536 27.7511 40.5333ZM28.4978 44.4896C28.297 44.6893 28.0248 44.801 27.7415 44.8C27.1524 44.7969 26.6774 44.3169 26.6804 43.7278C26.6819 43.4458 26.795 43.176 26.9948 42.977C27.1934 42.7796 27.4615 42.6681 27.7415 42.6666C28.3306 42.6697 28.8056 43.1497 28.8026 43.7388C28.8011 44.0208 28.688 44.2906 28.4882 44.4896H28.4978Z" fill="#4D5AE5"/>
    </symbol>
    <!-- Clock icon -->
    <symbol id="clock" viewBox="0 0 64 64">
        <path d="M62.5933 30.6025C62.5899 13.6978 48.8828 -0.00341734 31.9775 6.39362e-07C15.0728 0.00341861 1.37158 13.7109 1.375 30.6157C1.37793 43.9316 9.98877 55.7178 22.6738 59.7681C22.7949 59.8062 22.9209 59.8257 23.0474 59.8252C23.2886 59.8247 23.5249 59.7603 23.7324 59.6377C24.0024 59.478 24.2041 59.2241 24.2988 58.9248L32.0288 34.4248C34.1421 34.4141 35.8462 32.6919 35.835 30.5791C35.8242 28.4658 34.1025 26.7617 31.9893 26.7725C31.4209 26.7749 30.8599 26.9058 30.3491 27.1553L20.1372 16.9419C19.6304 16.4526 18.8232 16.4668 18.334 16.9731C17.8564 17.4678 17.8564 18.251 18.334 18.7456L28.5405 28.9639C27.7573 30.5625 28.2051 32.4922 29.6133 33.582L22.248 56.9277C7.69238 51.5659 0.239258 35.4199 5.60108 20.8643C10.9629 6.30859 27.1089 -1.14453 41.6646 4.21729C56.2202 9.5791 63.6733 25.7256 58.3115 40.2808C55.6919 47.3921 50.3096 53.1431 43.3872 56.2275L42.5913 52.479C42.4458 51.79 41.7686 51.3496 41.0796 51.4956C40.8623 51.542 40.6606 51.6441 40.4946 51.792L32.8208 58.6431C32.2944 59.1113 32.2476 59.9175 32.7163 60.4439C32.8687 60.6148 33.064 60.7417 33.2827 60.8115L43.0801 63.9385C43.7505 64.1538 44.4688 63.7852 44.6841 63.1143C44.7524 62.9024 44.7637 62.6768 44.7178 62.459L43.9356 58.7808C55.2642 54.0049 62.6196 42.8965 62.5933 30.6025ZM31.9844 29.3272C32.6885 29.3272 33.2598 29.8984 33.2598 30.6025C33.2598 31.3071 32.6885 31.8779 31.9844 31.8779C31.2798 31.8779 30.709 31.3071 30.709 30.6025C30.709 29.8984 31.2798 29.3272 31.9844 29.3272ZM36.1851 59.0552L40.5532 55.1587L41.7588 60.8394L36.1851 59.0552Z" fill="#2E2F42"/>
        <path d="M30.709 6.37012V8.9209C30.709 9.62549 31.2798 10.1963 31.9844 10.1963C32.6885 10.1963 33.2598 9.62549 33.2598 8.9209V6.37012C33.2598 5.66602 32.6885 5.09473 31.9844 5.09473C31.2798 5.09473 30.709 5.66602 30.709 6.37012Z" fill="#4D5AE5"/>
        <path d="M7.75195 29.3271C7.04736 29.3271 6.47656 29.8984 6.47656 30.6025C6.47656 31.3071 7.04736 31.8779 7.75195 31.8779H10.3027C11.0073 31.8779 11.5781 31.3071 11.5781 30.6025C11.5781 29.8984 11.0073 29.3271 10.3027 29.3271H7.75195Z" fill="#4D5AE5"/>
        <path d="M56.2162 31.8779C56.9208 31.8779 57.4916 31.3071 57.4916 30.6025C57.4916 29.8984 56.9208 29.3271 56.2162 29.3271H53.6655C52.9614 29.3271 52.3901 29.8984 52.3901 30.6025C52.3901 31.3071 52.9614 31.8779 53.6655 31.8779H56.2162Z" fill="#4D5AE5"/>
    </symbol>
    <!-- Diagram icon -->
    <symbol id="diagram" viewBox="0 0 64 64">
        <path d="M29.8511 29.9292H31.9833V39.5242H29.8511V29.9292Z" fill="#4D5AE5"/>
        <path d="M38.3799 34.1936H40.5121V39.5242H38.3799V34.1936Z" fill="#4D5AE5"/>
        <path d="M21.3221 37.392H23.4544V39.5242H21.3221V37.392Z" fill="#4D5AE5"/>
        <path d="M14.9255 36.3258H17.0578V39.5241H14.9255V36.3258Z" fill="#4D5AE5"/>
        <path d="M3.19833 56.5819H54.3715C56.1378 56.5819 57.5699 55.1499 57.5699 53.3836V49.1192C57.5699 47.3529 56.1378 45.9209 54.3715 45.9209H53.3054V19.3343L59.3611 13.5977C60.7666 14.2905 62.4678 13.8699 63.3876 12.6003C64.308 11.3312 64.1789 9.58364 63.0826 8.46339C61.9863 7.34314 60.2424 7.17604 58.953 8.06776C57.6641 8.96 57.206 10.6513 57.8681 12.0719L53.3054 16.3973V13.9376C53.3054 12.1713 51.8734 10.7393 50.1071 10.7393H7.46276C5.6965 10.7393 4.26443 12.1713 4.26443 13.9376V45.9209H3.19833C1.43206 45.9209 0 47.3529 0 49.1192V53.3836C0 55.1499 1.43206 56.5819 3.19833 56.5819ZM60.7682 9.67317C61.3569 9.67317 61.8343 10.1505 61.8343 10.7393C61.8343 11.328 61.3569 11.8054 60.7682 11.8054C60.1794 11.8054 59.7021 11.328 59.7021 10.7393C59.7021 10.1505 60.1794 9.67317 60.7682 9.67317ZM6.39665 13.9376C6.39665 13.3489 6.874 12.8715 7.46276 12.8715H50.1071C50.6958 12.8715 51.1732 13.3489 51.1732 13.9376V18.4149L49.041 20.441V16.0698C49.041 15.4811 48.5636 15.0037 47.9749 15.0037H9.59498C9.00622 15.0037 8.52887 15.4811 8.52887 16.0698V42.7225C8.52887 43.3113 9.00622 43.7886 9.59498 43.7886H47.9749C48.5636 43.7886 49.041 43.3113 49.041 42.7225V23.3738L51.1732 21.3535V45.9209H6.39665V13.9376ZM15.9916 27.797C14.5492 27.7929 13.2826 28.7538 12.899 30.1442C12.5153 31.5346 13.1093 33.0094 14.3498 33.7455C15.5898 34.4815 17.1697 34.2967 18.2061 33.2936L21.912 35.1531C22.3425 35.3686 22.8646 35.2676 23.1847 34.9079L31.0624 26.0453L38.8062 31.848C39.2216 32.1593 39.8016 32.126 40.1784 31.7694L46.9088 25.3941V41.6564H10.6611V17.1359H46.9088V22.4566L39.3658 29.5997L31.5569 23.7455C31.1134 23.4134 30.4892 23.4758 30.1207 23.8897L22.1348 32.8751L19.1493 31.3821C19.1712 31.2541 19.1847 31.125 19.19 30.9953C19.19 29.2291 17.7579 27.797 15.9916 27.797ZM17.0577 30.9953C17.0577 31.5841 16.5804 32.0615 15.9916 32.0615C15.4029 32.0615 14.9255 31.5841 14.9255 30.9953C14.9255 30.4066 15.4029 29.9292 15.9916 29.9292C16.5804 29.9292 17.0577 30.4066 17.0577 30.9953ZM23.4544 48.0531H34.1155V49.1192C34.1155 49.7079 33.6381 50.1853 33.0494 50.1853H24.5205C23.9317 50.1853 23.4544 49.7079 23.4544 49.1192V48.0531ZM2.13222 49.1192C2.13222 48.5304 2.60957 48.0531 3.19833 48.0531H21.3222V49.1192C21.3222 50.8855 22.7542 52.3175 24.5205 52.3175H33.0494C34.8156 52.3175 36.2477 50.8855 36.2477 49.1192V48.0531H54.3715C54.9603 48.0531 55.4376 48.5304 55.4376 49.1192V53.3836C55.4376 53.9724 54.9603 54.4497 54.3715 54.4497H3.19833C2.60957 54.4497 2.13222 53.9724 2.13222 53.3836V49.1192Z" fill="#2E2F42"/>
    </symbol>
    <!-- Astronaut icon -->
    <symbol id="astronaut" viewBox="0 0 64 64">
        <path d="M63.9481 9.04812C63.8222 8.66299 63.4894 8.38149 63.0873 8.32274L59.2665 7.76698L57.5566 4.30455C57.1982 3.57492 56.0025 3.57492 55.6441 4.30455L53.9342 7.76698L50.1132 8.32286C49.7111 8.38149 49.3784 8.66212 49.2514 9.04825C49.1266 9.43438 49.23 9.85889 49.5212 10.1416L52.2872 12.8372L51.6344 16.6431C51.5661 17.0431 51.7304 17.4474 52.0579 17.6864C52.3897 17.9275 52.8227 17.9573 53.1822 17.7674L56.5998 15.97L60.0175 17.7674C60.1733 17.8495 60.345 17.89 60.5146 17.89C60.7354 17.89 60.9563 17.8218 61.1419 17.6863C61.4704 17.4474 61.6347 17.043 61.5654 16.643L60.9127 12.8371L63.6786 10.1415C63.9683 9.85776 64.073 9.43425 63.9481 9.04812ZM59.0223 11.702C58.7716 11.9463 58.6564 12.3004 58.7161 12.6461L59.098 14.8743L57.097 13.8226C56.9412 13.7404 56.7706 13.6999 56.5998 13.6999C56.4292 13.6999 56.2596 13.7404 56.1027 13.8226L54.1016 14.8743L54.4834 12.6461C54.5432 12.3004 54.4279 11.9474 54.1773 11.702L52.557 10.1234L54.7949 9.79801C55.1427 9.74788 55.4424 9.52926 55.5982 9.2145L56.5987 7.18785L57.5992 9.2145C57.755 9.52913 58.0547 9.74788 58.4025 9.79801L60.6404 10.1234L59.0223 11.702Z" fill="#4D5AE5"/>
        <path d="M52.267 41.0444H50.1335V43.1778H52.267V41.0444Z" fill="#4D5AE5"/>
        <path d="M52.267 45.3112H50.1335V47.4446H52.267V45.3112Z" fill="#4D5AE5"/>
        <path d="M54.4004 43.1778H52.267V45.3112H54.4004V43.1778Z" fill="#4D5AE5"/>
        <path d="M50.1337 43.1778H48.0002V45.3112H50.1337V43.1778Z" fill="#4D5AE5"/>
        <path d="M44.8001 52.778H42.6667V54.9113H44.8001V52.778Z" fill="#4D5AE5"/>
        <path d="M44.8001 57.0446H42.6667V59.1781H44.8001V57.0446Z" fill="#4D5AE5"/>
        <path d="M46.9336 54.9113H44.8002V57.0448H46.9336V54.9113Z" fill="#4D5AE5"/>
        <path d="M42.6667 54.9113H40.5333V57.0448H42.6667V54.9113Z" fill="#4D5AE5"/>
        <path d="M32 48.5113H29.8666V50.6447H32V48.5113Z" fill="#4D5AE5"/>
        <path d="M32 52.778H29.8666V54.9113H32V52.778Z" fill="#4D5AE5"/>
        <path d="M34.1334 50.6445H32V52.7779H34.1334V50.6445Z" fill="#4D5AE5"/>
        <path d="M29.8666 50.6445H27.7332V52.7779H29.8666V50.6445Z" fill="#4D5AE5"/>
        <path d="M11.733 12.2439H9.59961V14.3773H11.733V12.2439Z" fill="#4D5AE5"/>
        <path d="M11.733 16.5108H9.59961V18.6442H11.733V16.5108Z" fill="#4D5AE5"/>
        <path d="M13.8663 14.3774H11.7329V16.5108H13.8663V14.3774Z" fill="#4D5AE5"/>
        <path d="M9.59959 14.3774H7.46619V16.5108H9.59959V14.3774Z" fill="#4D5AE5"/>
        <path d="M49.4295 28.3189C48.8546 27.5434 48.0109 27.0443 47.053 26.9098C46.0908 26.7733 45.1414 27.026 44.3734 27.6138L41.8699 29.5327L41.8688 29.5338L38.0734 32.368L35.3577 31.2864C40.2004 29.1136 43.585 24.2698 43.585 18.6462C43.585 11.0002 37.3396 4.77933 29.6627 4.77933C21.9858 4.77933 15.7405 11.0002 15.7405 18.6462C15.7405 21.4175 16.5692 23.9945 17.9805 26.163L12.4529 26.115C12.4497 26.115 12.4465 26.115 12.4433 26.115C12.4262 26.115 12.4124 26.1235 12.3964 26.1247C12.2908 26.1289 12.1873 26.1503 12.086 26.1865C12.0604 26.1962 12.0338 26.2015 12.0093 26.2132C11.9965 26.2185 11.9837 26.2195 11.9709 26.2259L5.50468 29.4185C5.50356 29.4185 5.50256 29.4185 5.50256 29.4195L1.71575 31.2405C1.67412 31.2586 1.6315 31.2831 1.58987 31.3109C0.0804746 32.3156 -0.433659 34.289 0.393104 35.9018C0.833611 36.7594 1.5835 37.391 2.50514 37.68C2.86039 37.7908 3.22302 37.8453 3.58353 37.8453C4.16279 37.8453 4.73667 37.7035 5.26243 37.423L8.03798 35.9467L12.566 33.6085L15.2797 33.5925L4.39629 44.4237C4.39529 44.4248 4.39417 44.4248 4.39304 44.4258L1.71563 47.0925C1.08312 47.7219 0.73536 48.557 0.73536 49.4478C0.73536 50.3374 1.08312 51.1747 1.71563 51.8052C2.36526 52.4516 3.21965 52.7758 4.07404 52.7758C4.92955 52.7758 5.78281 52.4516 6.43457 51.8052L9.06287 49.1875L12.5445 46.588L14.3462 48.3821L10.8229 51.8904C10.8219 51.8916 10.8208 51.8916 10.8196 51.8926L8.14223 54.5592C7.50972 55.1886 7.16196 56.0237 7.16196 56.9145C7.16196 57.8041 7.50972 58.6414 8.14223 59.2719C8.79186 59.9183 9.64738 60.2426 10.5018 60.2426C11.3562 60.2426 12.2117 59.9183 12.8623 59.2719L15.5407 56.6052L19.8255 52.3386C19.8267 52.3374 19.8267 52.3364 19.8277 52.3353L21.8469 50.3353L21.8394 50.3278C21.8522 50.315 21.8703 50.3106 21.8832 50.2969L32.2151 38.9805L39.1571 39.9682C39.2072 39.9757 39.2573 39.9789 39.3075 39.9789C39.4366 39.9789 39.5613 39.948 39.6819 39.9021C39.7171 39.8894 39.748 39.8722 39.7811 39.8552C39.8195 39.836 39.86 39.8254 39.8964 39.8009L46.3231 35.5342C46.3466 35.5182 46.3593 35.4925 46.3817 35.4755C46.4073 35.4553 46.4393 35.4468 46.4627 35.4243L49.0056 33.0424C50.3288 31.8026 50.5111 29.7717 49.4295 28.3189ZM4.26079 35.5403C3.91416 35.7259 3.52053 35.7632 3.14402 35.6438C2.77064 35.5275 2.46776 35.2725 2.29063 34.928C1.9685 34.3008 2.15513 33.537 2.71939 33.1243L5.34668 31.8602L5.97919 33.7088L6.24482 34.4853L4.26079 35.5403ZM11.255 31.8849L8.15848 33.4849L7.64759 31.9915L7.28071 30.9184L11.3342 28.9172L11.255 31.8849ZM41.4539 18.644C41.4539 20.4808 41.0155 22.2132 40.256 23.763L31.8932 19.9646C31.8057 18.8179 31.2106 17.8142 30.3167 17.189L33.2447 7.46837C38.0001 8.98102 41.4539 13.4173 41.4539 18.644ZM17.876 18.644C17.876 12.1746 23.1646 6.91049 29.6649 6.91049C30.1706 6.91049 30.6655 6.95311 31.1551 7.01499L28.291 16.5224C28.2527 16.5213 28.2164 16.5106 28.1769 16.5106C26.1118 16.5106 24.4317 18.1853 24.4317 20.2441C24.4317 22.3027 26.1118 23.9775 28.1769 23.9775C29.5657 23.9775 30.7657 23.2106 31.4132 22.0883L39.1381 25.5978C36.9887 28.4906 33.5486 30.3776 29.6648 30.3776C23.1646 30.3776 17.876 25.1135 17.876 18.644ZM29.7887 20.2441C29.7887 21.1262 29.0654 21.8441 28.1769 21.8441C27.2884 21.8441 26.5651 21.1262 26.5651 20.2441C26.5651 19.3619 27.2884 18.644 28.1769 18.644C29.0654 18.644 29.7887 19.3619 29.7887 20.2441ZM4.92968 50.2925C4.45717 50.7608 3.69228 50.7598 3.2209 50.2936C2.99365 50.0664 2.86889 49.7668 2.86889 49.4478C2.86889 49.1299 2.99365 48.8301 3.2209 48.6051L5.14505 46.6882L6.84746 48.3832L4.92968 50.2925ZM11.3574 57.7594C10.8849 58.2276 10.119 58.2288 9.6475 57.7605C9.42025 57.5333 9.29549 57.2336 9.29549 56.9146C9.29549 56.5967 9.42025 56.297 9.6475 56.072L11.5729 54.1541L12.3783 54.9552L13.2764 55.8491L11.3574 57.7594ZM18.3208 50.8217C18.3196 50.8227 18.3186 50.8227 18.3175 50.8238L14.7878 54.3438L13.9824 53.5427L13.0843 52.6488L16.6107 49.1384C16.6107 49.1384 16.6107 49.1384 16.6107 49.1374C16.6119 49.1363 16.6129 49.1363 16.614 49.1353C16.694 49.0553 16.7441 48.9593 16.7932 48.8644C16.8071 48.8366 16.8337 48.8131 16.8455 48.7844C16.8786 48.7023 16.8839 48.6138 16.8967 48.5272C16.9031 48.4781 16.9245 48.4324 16.9245 48.3821C16.9245 48.3106 16.8989 48.2414 16.884 48.1709C16.8712 48.1069 16.8712 48.0417 16.8466 47.98C16.8061 47.8797 16.7367 47.7912 16.6642 47.7047C16.644 47.6812 16.6365 47.6514 16.6141 47.629C16.6141 47.629 16.6141 47.629 16.613 47.629C16.6119 47.628 16.6119 47.6257 16.6109 47.6247L13.3969 44.4247C13.3628 44.3906 13.3191 44.3767 13.2807 44.3479C13.2242 44.3042 13.1698 44.2637 13.1068 44.2327C13.0461 44.2028 12.9842 44.1847 12.9202 44.1676C12.8519 44.1483 12.7858 44.1334 12.7143 44.1281C12.6492 44.1238 12.5884 44.1302 12.5234 44.1377C12.4519 44.1462 12.3848 44.1558 12.3154 44.1782C12.2482 44.1996 12.1885 44.2326 12.1267 44.2678C12.0872 44.2902 12.0424 44.2977 12.005 44.3254L8.45836 46.973L6.6567 45.1788L11.4547 40.4065L20.1759 48.9838L18.3208 50.8217ZM31.9584 36.7883C31.9275 36.7841 31.8986 36.7958 31.8677 36.7937C31.7898 36.7894 31.7152 36.7948 31.6373 36.8076C31.5766 36.8182 31.519 36.8299 31.4613 36.8502C31.3931 36.8737 31.3312 36.9057 31.2682 36.9441C31.2085 36.9803 31.1541 37.0187 31.1018 37.0667C31.0762 37.0891 31.0453 37.0998 31.0218 37.1253L21.6253 47.4167L12.9692 38.9035L18.6354 33.2671C19.0525 32.8511 19.0546 32.1759 18.6386 31.7577C18.4285 31.5476 18.1523 31.4441 17.876 31.4452V31.4442L13.4386 31.4709L13.4941 28.2559L19.7022 28.3093C22.2323 30.8971 25.7609 32.511 29.6649 32.511C30.5396 32.511 31.393 32.4204 32.2239 32.2656C32.3039 32.3296 32.3827 32.3948 32.4831 32.4353L37.3024 34.3553L37.6074 35.8721L37.9637 37.6427L31.9584 36.7883ZM40.0406 37.1446L39.4145 34.0288L42.3073 31.8687L43.0647 32.8735L44.2007 34.3818L40.0406 37.1446ZM47.5478 31.4826L45.8721 33.0528L44.0097 30.5802L45.6726 29.3056C45.9829 29.0667 46.3745 28.9696 46.7585 29.0197C47.1446 29.0741 47.486 29.2757 47.7185 29.5882C48.1516 30.1717 48.078 30.9856 47.5478 31.4826Z" fill="#2E2F42"/>
        <path d="M27.2041 37.0881L22.9182 32.8214C22.5033 32.4065 21.829 32.4065 21.413 32.8214L17.1282 37.0881C16.9277 37.2897 16.8146 37.5606 16.8146 37.8443C16.8146 38.1281 16.9266 38.4001 17.1282 38.6006L21.413 42.8673C21.621 43.0742 21.8942 43.1777 22.1662 43.1777C22.4382 43.1777 22.7112 43.0742 22.9182 42.8673L27.2041 38.6006C27.4046 38.4001 27.5187 38.1281 27.5187 37.8443C27.5187 37.5606 27.4056 37.2886 27.2041 37.0881ZM22.1662 40.606L19.3927 37.8443L22.1662 35.0827L24.9406 37.8443L22.1662 40.606Z" fill="#2E2F42"/>
        <path d="M34.3285 10.1415L33.8132 12.2131C33.9551 12.2483 37.2885 13.1166 37.2885 16.5108H39.4219C39.4218 12.4765 36.0906 10.5799 34.3285 10.1415Z" fill="#2E2F42"/>
        <path d="M39.422 18.644H37.2886V20.7775H39.422V18.644Z" fill="#2E2F42"/>
    </symbol>
    <!-- Instagram icon -->
    <symbol id="icon-instagram" viewBox="0 0 16 16">
       <path d="M15.9843 4.70392C15.9468 3.85378 15.8093 3.26932 15.6124 2.76287C15.4092 2.22529 15.0967 1.74399 14.6872 1.34389C14.2871 0.937561 13.8026 0.621826 13.2713 0.421835C12.7619 0.224897 12.1805 0.0874194 11.3303 0.0499365C10.4738 0.00927917 10.2019 -0.00012207 8.02963 -0.00012207C5.85733 -0.00012207 5.58543 0.00927917 4.73212 0.0467621C3.88197 0.084245 3.29751 0.221845 2.79119 0.418661C2.25348 0.621826 1.77219 0.934387 1.37209 1.34389C0.965758 1.74399 0.650145 2.22846 0.450033 2.75982C0.253096 3.26932 0.115618 3.85061 0.0781347 4.70075C0.0374774 5.55724 0.0280762 5.82914 0.0280762 8.00144C0.0280762 10.1737 0.0374774 10.4456 0.0749603 11.299C0.112443 12.1491 0.250043 12.7336 0.446981 13.24C0.650145 13.7776 0.965758 14.2589 1.37209 14.659C1.77219 15.0653 2.25666 15.3811 2.78801 15.581C3.29751 15.778 3.8788 15.9155 4.72906 15.9529C5.58226 15.9906 5.85428 15.9998 8.02658 15.9998C10.1989 15.9998 10.4708 15.9906 11.3241 15.9529C12.1742 15.9155 12.7587 15.778 13.265 15.581C14.3403 15.1653 15.1904 14.3152 15.6062 13.24C15.803 12.7305 15.9406 12.1491 15.9781 11.299C16.0156 10.4456 16.025 10.1737 16.025 8.00144C16.025 5.82914 16.0218 5.55724 15.9843 4.70392ZM14.5435 11.2364C14.509 12.0179 14.3778 12.4398 14.2684 12.7211C13.9995 13.4181 13.4463 13.9714 12.7493 14.2402C12.468 14.3496 12.043 14.4809 11.2646 14.5152C10.4207 14.5528 10.1676 14.562 8.03281 14.562C5.89799 14.562 5.64172 14.5528 4.80085 14.5152C4.01945 14.4809 3.5975 14.3496 3.31619 14.2402C2.96932 14.112 2.65359 13.9088 2.39731 13.6432C2.13163 13.3837 1.92847 13.0712 1.80027 12.7243C1.69087 12.443 1.55962 12.0179 1.52532 11.2396C1.48771 10.3957 1.47843 10.1425 1.47843 8.00767C1.47843 5.87285 1.48771 5.61658 1.52532 4.77584C1.55962 3.99443 1.69087 3.57248 1.80027 3.29117C1.92847 2.94418 2.13163 2.62857 2.40049 2.37217C2.65981 2.10649 2.97237 1.90333 3.31937 1.77525C3.60067 1.66585 4.0258 1.5346 4.80403 1.50017C5.64794 1.46269 5.90117 1.45329 8.03586 1.45329C10.1738 1.45329 10.4269 1.46269 11.2678 1.50017C12.0492 1.5346 12.4712 1.66585 12.7525 1.77525C13.0993 1.90333 13.4151 2.10649 13.6714 2.37217C13.937 2.63162 14.1402 2.94418 14.2684 3.29117C14.3778 3.57248 14.509 3.99748 14.5435 4.77584C14.581 5.61975 14.5904 5.87285 14.5904 8.00767C14.5904 10.1425 14.581 10.3925 14.5435 11.2364Z"/>
       <path d="M8.02967 3.89124C5.76055 3.89124 3.91949 5.73217 3.91949 8.00141C3.91949 10.2707 5.76055 12.1116 8.02967 12.1116C10.2989 12.1116 12.1398 10.2707 12.1398 8.00141C12.1398 5.73217 10.2989 3.89124 8.02967 3.89124ZM8.02967 10.6676C6.55758 10.6676 5.3635 9.47362 5.3635 8.00141C5.3635 6.5292 6.55758 5.33524 8.02967 5.33524C9.50188 5.33524 10.6958 6.5292 10.6958 8.00141C10.6958 9.47362 9.50188 10.6676 8.02967 10.6676Z"/>
       <path d="M13.262 3.72871C13.262 4.2586 12.8324 4.68825 12.3024 4.68825C11.7725 4.68825 11.3428 4.2586 11.3428 3.72871C11.3428 3.19869 11.7725 2.76917 12.3024 2.76917C12.8324 2.76917 13.262 3.19869 13.262 3.72871Z"/>
    </symbol>
    <!-- Twitter icon -->
    <symbol id="icon-twitter" viewBox="0 0 16 16">
       <path d="M16 3.03888C15.405 3.29988 14.771 3.47288 14.11 3.55688C14.79 3.15088 15.309 2.51288 15.553 1.74388C14.919 2.12188 14.219 2.38888 13.473 2.53788C12.871 1.89688 12.013 1.49988 11.077 1.49988C9.261 1.49988 7.799 2.97388 7.799 4.78088C7.799 5.04088 7.821 5.29088 7.875 5.52888C5.148 5.39588 2.735 4.08888 1.114 2.09788C0.831 2.58888 0.665 3.15088 0.665 3.75588C0.665 4.89188 1.25 5.89888 2.122 6.48188C1.595 6.47188 1.078 6.31888 0.64 6.07788C0.64 6.08788 0.64 6.10088 0.64 6.11388C0.64 7.70788 1.777 9.03188 3.268 9.33688C3.001 9.40988 2.71 9.44488 2.408 9.44488C2.198 9.44488 1.986 9.43288 1.787 9.38888C2.212 10.6879 3.418 11.6429 4.852 11.6739C3.736 12.5469 2.319 13.0729 0.785 13.0729C0.516 13.0729 0.258 13.0609 0 13.0279C1.453 13.9649 3.175 14.4999 5.032 14.4999C11.068 14.4999 14.368 9.49988 14.368 5.16588C14.368 5.02088 14.363 4.88088 14.356 4.74188C15.007 4.27988 15.554 3.70288 16 3.03888Z"/>
    </symbol>
    <!-- Facebook icon -->
    <symbol id="icon-facebook" viewBox="0 0 16 16">
       <path d="M10.6647 2.65654H12.1254V0.112545C11.8734 0.0778779 11.0067 -0.00012207 9.99736 -0.00012207C7.89136 -0.00012207 6.4487 1.32454 6.4487 3.75921V5.99988H4.12469V8.84388H6.4487V15.9999H9.29803V8.84455H11.528L11.882 6.00055H9.29736V4.04121C9.29803 3.21921 9.51936 2.65654 10.6647 2.65654Z"/>
    </symbol>
    <!-- Linkedin icon -->
    <symbol id="icon-linkedin1" viewBox="0 0 16 16">
      <path d="M15.9961 15.9999V15.9992H16.0001V10.1312C16.0001 7.26053 15.3821 5.04919 12.0261 5.04919C10.4128 5.04919 9.33009 5.93453 8.88809 6.77386H8.84143V5.31719H5.65942V15.9992H8.97276V10.7099C8.97276 9.31719 9.23676 7.97053 10.9614 7.97053C12.6608 7.97053 12.6861 9.55986 12.6861 10.7992V15.9999H15.9961Z"/>
      <path d="M0.264038 5.31787H3.58137V15.9999H0.264038V5.31787Z"/>
      <path d="M1.92139 -0.00012207C0.860728 -0.00012207 6.10352e-05 0.860545 6.10352e-05 1.92121C6.10352e-05 2.98188 0.860728 3.86055 1.92139 3.86055C2.98206 3.86055 3.84273 2.98188 3.84273 1.92121C3.84206 0.860545 2.98139 -0.00012207 1.92139 -0.00012207V-0.00012207Z"/>
    </symbol>
    <!-- Client1 icon -->
    <symbol id="client1" viewBox="0 0 104 56">
      <path fill-rule="evenodd" clip-rule="evenodd" d="M38 7L45.0078 13.6764L32 13.6687V46.0609H66V33.6758L73 40.3448V7H38ZM65.6924 32.8922L45.8226 13.962H65.6924V32.8922ZM59.5231 41.3227H37.3801V19.5373H38.9453V39.8475H59.5231V41.3227ZM41.7959 52.0611L40.9707 50.3643H40.2896L41.4858 52.6104V53.919H42.1035V52.6104L43.2998 50.3643H42.6211L41.7959 52.0611ZM44.8379 50.3643H44.9844L46.3271 53.919H45.6826L45.395 53.0865H44.0189L43.7319 53.919H43.0898L44.4277 50.3643H44.5718H44.8379ZM44.1864 52.6007H45.2271L44.7062 51.0927L44.1864 52.6007ZM48.4821 52.0117C48.4553 51.9776 48.4295 51.9445 48.4048 51.9122C48.3136 51.7917 48.2428 51.6754 48.1924 51.5631C48.1419 51.4491 48.1167 51.3319 48.1167 51.2115C48.1167 51.026 48.1549 50.8665 48.2314 50.733C48.3079 50.5995 48.4162 50.497 48.5562 50.4254C48.6961 50.3521 48.8597 50.3155 49.0469 50.3155C49.2275 50.3155 49.383 50.3521 49.5132 50.4254C49.645 50.497 49.7459 50.5922 49.8159 50.711C49.8875 50.8298 49.9233 50.96 49.9233 51.1016C49.9233 51.2139 49.903 51.3165 49.8623 51.4093C49.8216 51.502 49.7655 51.5867 49.6938 51.6632C49.6222 51.7397 49.5392 51.8121 49.4448 51.8805L49.1979 52.0602L49.9018 52.8909C49.925 52.8453 49.946 52.7973 49.9648 52.7472C50.0251 52.5909 50.0552 52.4176 50.0552 52.2271H50.563C50.563 52.3997 50.5459 52.5632 50.5117 52.7179C50.4792 52.8725 50.4263 53.0157 50.353 53.1475C50.3233 53.2022 50.2897 53.2545 50.2522 53.3044L50.7729 53.919H50.0918L49.8852 53.676C49.7734 53.7609 49.6518 53.8272 49.5205 53.8751C49.348 53.9369 49.1641 53.9679 48.9688 53.9679C48.7327 53.9679 48.5285 53.9247 48.356 53.8385C48.1834 53.7522 48.05 53.6334 47.9556 53.482C47.8628 53.3306 47.8164 53.1573 47.8164 52.962C47.8164 52.8171 47.8465 52.6902 47.9067 52.5811C47.967 52.4705 48.0492 52.3679 48.1533 52.2735C48.2495 52.1862 48.3591 52.099 48.4821 52.0117ZM48.7738 52.3689L48.7002 52.4224C48.6139 52.4924 48.5496 52.56 48.5073 52.6251C48.4666 52.6886 48.4398 52.7472 48.4268 52.8009C48.4137 52.8546 48.4072 52.9018 48.4072 52.9425C48.4072 53.0466 48.4292 53.141 48.4731 53.2257C48.5187 53.3103 48.5846 53.3778 48.6709 53.4283C48.7588 53.4771 48.8654 53.5015 48.9907 53.5015C49.1258 53.5015 49.2568 53.4714 49.3838 53.4112C49.4474 53.3802 49.5078 53.3429 49.5648 53.2992L48.7738 52.3689ZM48.9143 51.7196L49.1323 51.5728C49.2349 51.5045 49.3081 51.4377 49.3521 51.3726C49.396 51.3059 49.418 51.2229 49.418 51.1236C49.418 51.039 49.3854 50.9609 49.3203 50.8892C49.2552 50.8176 49.1632 50.7818 49.0444 50.7818C48.9614 50.7818 48.8914 50.8013 48.8345 50.8404C48.7775 50.8778 48.7344 50.9283 48.7051 50.9918C48.6774 51.0536 48.6636 51.1228 48.6636 51.1993C48.6636 51.2725 48.6823 51.3482 48.7197 51.4263C48.7572 51.5028 48.8084 51.5834 48.8735 51.668C48.8868 51.685 48.9004 51.7021 48.9143 51.7196ZM55.1333 52.7618H54.5229C54.505 52.9164 54.4676 53.0474 54.4106 53.1549C54.3553 53.2607 54.2731 53.3412 54.1641 53.3966C54.0566 53.4519 53.9159 53.4796 53.7417 53.4796C53.5985 53.4796 53.4756 53.4511 53.373 53.3941C53.2705 53.3372 53.1859 53.2566 53.1191 53.1524C53.054 53.0483 53.0052 52.9237 52.9727 52.7789C52.9417 52.6324 52.9263 52.4696 52.9263 52.2906V51.9903C52.9263 51.8015 52.9434 51.6339 52.9775 51.4874C53.0133 51.3393 53.0662 51.2148 53.1362 51.1138C53.2062 51.0129 53.2933 50.9364 53.3975 50.8844C53.5016 50.8323 53.6237 50.8062 53.7637 50.8062C53.9346 50.8062 54.0729 50.8355 54.1787 50.8941C54.2845 50.9511 54.3643 51.0341 54.418 51.1431C54.4733 51.2522 54.5091 51.3832 54.5254 51.5362H55.1357C55.1113 51.2986 55.0446 51.0878 54.9355 50.9039C54.8281 50.72 54.6768 50.5759 54.4814 50.4718C54.2861 50.3676 54.0469 50.3155 53.7637 50.3155C53.5407 50.3155 53.3397 50.3546 53.1606 50.4327C52.9832 50.5108 52.8311 50.6239 52.7041 50.7721C52.5771 50.9185 52.4795 51.0951 52.4111 51.3018C52.3444 51.5085 52.311 51.7397 52.311 51.9952V52.2906C52.311 52.5461 52.3436 52.7773 52.4087 52.984C52.4754 53.1907 52.5715 53.3673 52.6968 53.5138C52.8221 53.6586 52.9727 53.7709 53.1484 53.8507C53.3242 53.9288 53.522 53.9679 53.7417 53.9679C54.0282 53.9679 54.2715 53.9158 54.4717 53.8116C54.6719 53.7074 54.8273 53.565 54.938 53.3844C55.0487 53.2021 55.1138 52.9945 55.1333 52.7618ZM58.5244 52.2393V52.044C58.5244 51.7755 58.4886 51.5354 58.417 51.3238C58.347 51.1106 58.2469 50.9291 58.1167 50.7794C57.9865 50.628 57.8311 50.5133 57.6504 50.4351C57.4697 50.3554 57.2695 50.3155 57.0498 50.3155C56.8317 50.3155 56.6323 50.3554 56.4517 50.4351C56.2726 50.5133 56.1172 50.628 55.9854 50.7794C55.8551 50.9291 55.7542 51.1106 55.6826 51.3238C55.611 51.5354 55.5752 51.7755 55.5752 52.044V52.2393C55.5752 52.5079 55.611 52.7488 55.6826 52.962C55.7559 53.1752 55.8584 53.3567 55.9902 53.5064C56.1221 53.6562 56.2775 53.7709 56.4565 53.8507C56.6372 53.9288 56.8366 53.9679 57.0547 53.9679C57.2744 53.9679 57.4746 53.9288 57.6553 53.8507C57.8359 53.7709 57.9906 53.6562 58.1191 53.5064C58.2493 53.3567 58.3494 53.1752 58.4194 52.962C58.4894 52.7488 58.5244 52.5079 58.5244 52.2393ZM57.9116 52.0391V52.2393C57.9116 52.4379 57.8921 52.6137 57.853 52.7667C57.8156 52.9197 57.7603 53.0491 57.687 53.1549C57.6138 53.259 57.5243 53.338 57.4185 53.3917C57.3127 53.4438 57.1914 53.4698 57.0547 53.4698C56.9196 53.4698 56.7992 53.4438 56.6934 53.3917C56.5876 53.338 56.4964 53.259 56.4199 53.1549C56.3451 53.0491 56.2881 52.9197 56.249 52.7667C56.21 52.6137 56.1904 52.4379 56.1904 52.2393V52.0391C56.1904 51.8406 56.21 51.6656 56.249 51.5142C56.2881 51.3612 56.3442 51.2335 56.4175 51.1309C56.4923 51.0268 56.5827 50.9486 56.6885 50.8966C56.7943 50.8429 56.9147 50.816 57.0498 50.816C57.1849 50.816 57.3062 50.8429 57.4136 50.8966C57.521 50.9486 57.6113 51.0268 57.6846 51.1309C57.7594 51.2335 57.8156 51.3612 57.853 51.5142C57.8921 51.6656 57.9116 51.8406 57.9116 52.0391Z"/>
    </symbol>
    <!-- Client2 icon -->
    <symbol id="client2" viewBox="0 0 104 56">
      <path fill-rule="evenodd" clip-rule="evenodd" d="M50.1136 5.93452H49.977C49.7671 5.92181 49.5571 5.91672 49.3471 5.91163H49.3471H49.3269H48.8918C48.4946 5.91163 48.0898 5.92181 47.6876 5.94215C47.6573 5.93994 47.6269 5.93994 47.5966 5.94215C43.9522 6.14863 40.3817 7.05951 37.0805 8.62492L36.6479 8.83344V30.9746L37.6598 30.6313C38.5477 30.3261 39.4938 30.0515 40.4728 29.7972C43.1193 29.1178 45.8367 28.7567 48.568 28.7216V31.6306C48.2062 31.6332 47.8546 31.6434 47.503 31.6612H47.4195C45.3175 31.7765 43.2317 32.0967 41.1913 32.6173C38.6072 33.2643 36.1143 34.2357 33.7716 35.5086V7.11189C36.2047 5.69275 38.8253 4.62687 41.5556 3.94596C43.9527 3.32705 46.4169 3.00931 48.8918 3H49.3193C49.8303 3.01271 50.3287 3.0356 50.7967 3.0712C52.0297 3.15778 53.2528 3.35263 54.4521 3.65353V6.51685C53.2874 6.24551 52.1032 6.06695 50.9105 5.98284C50.8863 5.98079 50.8621 5.97872 50.8379 5.97666C50.5911 5.95561 50.344 5.93452 50.1136 5.93452ZM55.1528 8.86138C55.7877 8.9097 56.4455 8.93259 57.1108 8.93259C59.7125 8.92307 62.3031 8.59083 64.8239 7.94339C67.4068 7.29396 69.8986 6.32178 72.2411 5.04956V32.9402C69.8067 34.3585 67.1853 35.4243 64.4546 36.1061C62.0571 36.7227 59.5931 37.0395 57.1184 37.0496C55.2433 37.0647 53.3737 36.8443 51.553 36.3935V8.32229C51.983 8.42146 52.4257 8.51301 52.876 8.58929C53.6147 8.7139 54.3939 8.80544 55.1528 8.86138ZM69.3471 9.07753L68.3352 9.41828C67.4042 9.73106 66.4657 10.0108 65.5221 10.26C62.7749 10.966 59.9514 11.3281 57.1158 11.3382C56.4556 11.3382 55.8485 11.3204 55.2616 11.2822L54.4546 11.2288V31.3178V34.0057L55.1477 34.0667C55.7903 34.1227 56.4531 34.1506 57.1209 34.1506C59.3544 34.1412 61.5781 33.8533 63.7412 33.2937C65.5223 32.8469 67.2552 32.2243 68.9145 31.4348L69.3471 31.2263V9.07753Z"/>
      <path d="M35.7371 45.2124C35.5917 45.0615 35.4163 44.943 35.2224 44.8646C35.0284 44.7862 34.8203 44.7496 34.6114 44.7572C34.3888 44.7542 34.1678 44.7957 33.9613 44.8793C33.7719 44.9547 33.5998 45.068 33.4553 45.2124C33.3125 45.3572 33.2013 45.5304 33.129 45.721C33.0497 45.9207 33.0101 46.1341 33.0126 46.3491V50.1431C33.0036 50.4104 33.0546 50.6764 33.1619 50.9212C33.2514 51.1156 33.3807 51.2889 33.5413 51.4298C33.693 51.5575 33.871 51.6495 34.0625 51.6994C34.2469 51.7512 34.4376 51.7777 34.6291 51.7782C34.8404 51.7803 35.0495 51.7351 35.2413 51.646C35.4309 51.563 35.6028 51.4438 35.7473 51.295C35.8881 51.1476 36.0005 50.9752 36.0786 50.7864C36.1597 50.5951 36.201 50.3892 36.2001 50.1812V49.7566H35.2084V50.0948C35.2114 50.2103 35.1916 50.3252 35.1502 50.433C35.1179 50.5137 35.0688 50.5866 35.006 50.6466C34.9446 50.6962 34.8742 50.7334 34.7986 50.7559C34.7316 50.7782 34.6617 50.7902 34.5912 50.7915C34.5026 50.8018 34.413 50.7885 34.3312 50.7527C34.2495 50.717 34.1786 50.6602 34.1257 50.5881C34.0322 50.4356 33.9864 50.2585 33.9942 50.0795V46.5423C33.988 46.3462 34.0297 46.1515 34.1156 45.9753C34.1671 45.8952 34.2399 45.8313 34.3258 45.7908C34.4117 45.7503 34.5071 45.7349 34.6013 45.7464C34.6868 45.7434 34.7717 45.7612 34.8488 45.7984C34.9259 45.8356 34.9929 45.8911 35.044 45.96C35.155 46.1057 35.213 46.2852 35.2084 46.4686V46.7966H36.19V46.4101C36.1919 46.1831 36.1507 45.9578 36.0685 45.7464C35.9953 45.5476 35.8825 45.3659 35.7371 45.2124Z"/>
      <path d="M41.6289 45.1691C41.3127 44.9021 40.9136 44.7546 40.5007 44.7521C40.2987 44.7529 40.0984 44.7891 39.9087 44.8589C39.7161 44.9279 39.5384 45.0332 39.3851 45.1691C39.2208 45.3168 39.0897 45.498 39.0005 45.7006C38.9006 45.9323 38.8515 46.183 38.8563 46.4355V50.0744C38.8495 50.3304 38.8987 50.5847 39.0005 50.8195C39.0903 51.0151 39.2215 51.1887 39.3851 51.328C39.5367 51.4688 39.7147 51.5777 39.9087 51.6485C40.0984 51.7183 40.2987 51.7544 40.5007 51.7553C40.7027 51.7549 40.9031 51.7187 41.0926 51.6485C41.29 51.5767 41.4719 51.468 41.6289 51.328C41.7871 51.1861 41.9145 51.013 42.0033 50.8195C42.1051 50.5847 42.1544 50.3304 42.1475 50.0744V46.4355C42.1524 46.183 42.1032 45.9323 42.0033 45.7006C41.9151 45.5001 41.7878 45.3194 41.6289 45.1691ZM41.166 50.0744C41.1743 50.1714 41.1609 50.269 41.1268 50.3601C41.0926 50.4512 41.0386 50.5334 40.9687 50.6008C40.8377 50.7106 40.6725 50.7708 40.5019 50.7708C40.3313 50.7708 40.1662 50.7106 40.0352 50.6008C39.9652 50.5334 39.9112 50.4512 39.8771 50.3601C39.8429 50.269 39.8295 50.1714 39.8379 50.0744V46.4355C39.8295 46.3385 39.8429 46.2409 39.8771 46.1498C39.9112 46.0587 39.9652 45.9764 40.0352 45.9091C40.1662 45.7993 40.3313 45.7391 40.5019 45.7391C40.6725 45.7391 40.8377 45.7993 40.9687 45.9091C41.0386 45.9764 41.0926 46.0587 41.1268 46.1498C41.1609 46.2409 41.1743 46.3385 41.166 46.4355V50.0744Z"/>
      <path d="M49.3673 51.6994V44.8107H48.4136L47.1614 48.4572H47.1437L45.8813 44.8107H44.9377V51.6994H45.9218V47.5087H45.9395L46.9033 50.4712H47.3941L48.3655 47.5087H48.3832V51.6994H49.3673Z"/>
      <path d="M54.9581 45.2937C54.8065 45.1237 54.6153 44.9943 54.4015 44.9173C54.1712 44.8424 53.9302 44.8063 53.6881 44.8105H52.226V51.6993H53.2075V49.0089H53.7134C54.0197 49.0228 54.3244 48.958 54.5988 48.8207C54.822 48.6968 55.0081 48.515 55.1377 48.2943C55.2512 48.1111 55.3277 47.9071 55.3628 47.6942C55.4014 47.435 55.4192 47.173 55.4159 46.911C55.4255 46.5802 55.3932 46.2495 55.3198 45.9269C55.2543 45.6885 55.1299 45.4706 54.9581 45.2937ZM54.4521 47.3941C54.4479 47.5188 54.4168 47.6412 54.361 47.7527C54.3049 47.8586 54.2162 47.9434 54.1081 47.9942C53.9627 48.0593 53.8041 48.0889 53.6451 48.0807H53.1974V45.7387H53.7033C53.8557 45.7312 54.0075 45.7609 54.146 45.8251C54.2475 45.8834 54.3281 45.9724 54.3762 46.0794C54.4299 46.2004 54.4591 46.331 54.4622 46.4634C54.4622 46.6084 54.4622 46.7609 54.4622 46.9211C54.4622 47.0813 54.4723 47.2466 54.4622 47.3941H54.4521Z"/>
      <path d="M59.6077 44.8107H58.8032L57.2854 51.6994H58.2669L58.5553 50.2194H59.8935L60.1819 51.6994H61.1635L59.6077 44.8107ZM58.702 49.2811L59.1852 46.784H59.2029L59.6836 49.2811H58.702Z"/>
      <path d="M65.9497 48.9607H65.932L64.4496 44.8107H63.506V51.6994H64.4875V47.557H64.5078L66.0079 51.6994H66.9312V44.8107H65.9497V48.9607Z"/>
      <path d="M71.9476 44.8107L71.1583 47.5494H71.1381L70.3488 44.8107H69.3091L70.6574 48.7878V51.6994H71.639V48.7878L72.9873 44.8107H71.9476Z"/>
      <path d="M33 53.6445H33.4731V54.9719H33.7943V53.6445H34.2649V53.3724H33V53.6445Z"/>
      <path d="M36.9767 53.3724L36.3569 54.9719H36.6984L36.83 54.6083H37.4675L37.6041 54.9719H37.9532L37.3182 53.3724H36.9767ZM36.9261 54.3387L37.1437 53.7462L37.3612 54.3387H36.9261Z"/>
      <path d="M40.9079 54.3821H41.2773V54.5881C41.1694 54.6746 41.0358 54.722 40.8978 54.7229C40.8333 54.7265 40.7689 54.7145 40.7099 54.688C40.6509 54.6614 40.5991 54.6211 40.5588 54.5703C40.474 54.4485 40.4322 54.3017 40.4399 54.1533C40.4399 53.7973 40.5942 53.6193 40.9003 53.6193C40.9809 53.6112 41.0617 53.6325 41.128 53.6791C41.1944 53.7257 41.2419 53.7947 41.2621 53.8735L41.5783 53.8125C41.51 53.4997 41.2849 53.3421 40.9003 53.3421C40.6947 53.3366 40.4947 53.4103 40.3413 53.5481C40.2607 53.6276 40.1983 53.7239 40.1586 53.8302C40.1188 53.9365 40.1026 54.0502 40.1111 54.1634C40.1017 54.3823 40.1749 54.5966 40.316 54.7636C40.3943 54.8444 40.4892 54.9071 40.594 54.9475C40.6988 54.9879 40.8111 55.0049 40.9231 54.9975C41.1734 55.0045 41.4165 54.9133 41.6011 54.7432V54.1126H40.9079V54.3821Z"/>
      <path d="M44.9226 53.3724H44.5988V54.9719H45.7194V54.6998H44.9226V53.3724Z"/>
      <path d="M48.3175 53.3724H47.9937V54.9719H48.3175V53.3724Z"/>
      <path d="M51.6365 54.4405L50.9813 53.3724H50.6676V54.9719H50.9686V53.9268L51.6112 54.9719H51.9325V53.3724H51.6365V54.4405Z"/>
      <path d="M54.6368 54.2675H55.4337V53.9954H54.6368V53.6445H55.4944V53.3724H54.313V54.9719H55.5273V54.6998H54.6368V54.2675Z"/>
      <path d="M61.9122 54.0031H61.2823V53.3724H60.9611V54.9719H61.2823V54.2726H61.9122V54.9719H62.2335V53.3724H61.9122V54.0031Z"/>
      <path d="M64.9302 54.2675H65.7296V53.9954H64.9302V53.6445H65.7903V53.3724H64.6089V54.9719H65.8206V54.6998H64.9302V54.2675Z"/>
      <path d="M69.0233 54.2676C69.3015 54.2244 69.4432 54.0769 69.4432 53.8226C69.4513 53.7546 69.441 53.6856 69.4134 53.623C69.3858 53.5603 69.3419 53.5063 69.2863 53.4666C69.1415 53.3938 68.9799 53.3614 68.8183 53.3725H68.1404V54.972H68.4617V54.3032H68.5249C68.5934 54.299 68.6619 54.3112 68.7247 54.3388C68.7717 54.3678 68.8108 54.4079 68.8386 54.4558L69.1877 54.9644H69.5722L69.3774 54.6516C69.2913 54.4972 69.1699 54.3656 69.0233 54.2676ZM68.6994 54.0464H68.4617V53.6446H68.7146C68.8248 53.6357 68.9357 53.6486 69.041 53.6827C69.0644 53.7034 69.0828 53.7291 69.095 53.7579C69.1072 53.7867 69.1127 53.8179 69.1113 53.8492C69.1098 53.8804 69.1014 53.911 69.0866 53.9385C69.0718 53.966 69.051 53.9899 69.0258 54.0082C68.9202 54.0406 68.8096 54.0535 68.6994 54.0464Z"/>
      <path d="M72.1096 54.2675H72.9064V53.9954H72.1096V53.6445H72.9697V53.3724H71.7858V54.9719H73V54.6998H72.1096V54.2675Z"/>
    </symbol>
    <!-- Client3 icon -->
    <symbol id="client3" viewBox="0 0 104 56">
      <path d="M36.8098 49.2233C36.8259 49.2237 36.8418 49.2268 36.8565 49.2325C36.8712 49.2381 36.8844 49.2462 36.8954 49.2563L37.1162 49.4639C36.9448 49.6319 36.733 49.7663 36.4951 49.8578C36.2167 49.9577 35.9165 50.0059 35.6146 49.9993C35.3309 50.0043 35.049 49.9594 34.7865 49.8672C34.5497 49.7826 34.337 49.6555 34.1626 49.4946C33.9848 49.3276 33.8477 49.1319 33.7596 48.919C33.6632 48.6817 33.6155 48.4319 33.6189 48.1807C33.6149 47.9279 33.6664 47.6767 33.7707 47.44C33.8671 47.2258 34.0126 47.0301 34.1985 46.8645C34.387 46.7021 34.6125 46.5744 34.861 46.4894C35.1329 46.3994 35.4224 46.3545 35.714 46.3574C35.9848 46.3517 36.2542 46.3926 36.5062 46.4777C36.7248 46.5587 36.9255 46.6712 37.0997 46.8102L36.9147 47.032C36.9019 47.0476 36.8861 47.0612 36.8678 47.0721C36.846 47.0848 36.8196 47.0907 36.7933 47.0886C36.7646 47.0869 36.737 47.0787 36.7132 47.065L36.6138 47.006L36.4758 46.9305C36.4162 46.9025 36.3544 46.8781 36.2909 46.8574C36.209 46.8324 36.125 46.8127 36.0397 46.7984C35.9314 46.7814 35.8213 46.7735 35.7112 46.7749C35.5012 46.7726 35.2929 46.8063 35.0984 46.8739C34.917 46.9366 34.7533 47.0315 34.6181 47.1523C34.4805 47.2808 34.3744 47.4316 34.3062 47.5957C34.2284 47.7835 34.1901 47.9815 34.193 48.1807C34.1897 48.383 34.228 48.5842 34.3062 48.7751C34.3735 48.9379 34.4776 49.0877 34.6126 49.2162C34.739 49.336 34.8957 49.4296 35.0708 49.4898C35.251 49.5537 35.4444 49.5858 35.6394 49.5842C35.7521 49.5857 35.8647 49.5794 35.9762 49.5653C36.1582 49.5463 36.3328 49.4923 36.4869 49.4073C36.5641 49.3637 36.6371 49.3148 36.7049 49.261C36.7333 49.2379 36.7706 49.2245 36.8098 49.2233Z"/>
      <path d="M43.1862 48.1803C43.1896 48.4305 43.1391 48.6792 43.0371 48.9138C42.9472 49.1266 42.8055 49.3207 42.6213 49.4834C42.4372 49.646 42.2148 49.7734 41.9689 49.8573C41.4285 50.0334 40.8311 50.0334 40.2906 49.8573C40.0462 49.7721 39.8253 49.6444 39.6419 49.4822C39.4579 49.3167 39.3152 49.1209 39.2224 48.9067C39.0235 48.4317 39.0235 47.9124 39.2224 47.4373C39.3165 47.2231 39.4591 47.0267 39.6419 46.8595C39.8269 46.7024 40.0477 46.5796 40.2906 46.4986C40.8304 46.3193 41.4291 46.3193 41.9689 46.4986C42.2141 46.5837 42.4359 46.7114 42.6203 46.8736C42.802 47.0376 42.9437 47.2308 43.0371 47.442C43.1394 47.6782 43.1899 47.9285 43.1862 48.1803ZM42.6065 48.1803C42.6109 47.9801 42.5754 47.7807 42.5016 47.5906C42.4398 47.4278 42.3392 47.2777 42.2063 47.1496C42.0769 47.0284 41.9175 46.9333 41.7398 46.8713C41.3471 46.7423 40.9124 46.7423 40.5197 46.8713C40.342 46.9333 40.1827 47.0284 40.0532 47.1496C39.9184 47.2769 39.8168 47.4272 39.7551 47.5906C39.6147 47.9746 39.6147 48.386 39.7551 48.7699C39.8174 48.9331 39.919 49.0833 40.0532 49.211C40.1828 49.3315 40.3422 49.4257 40.5197 49.487C40.9131 49.6126 41.3464 49.6126 41.7398 49.487C41.9173 49.4257 42.0767 49.3315 42.2063 49.211C42.3386 49.0826 42.4391 48.9325 42.5016 48.7699C42.5757 48.5799 42.6112 48.3805 42.6065 48.1803Z"/>
      <path d="M47.5365 48.7987L47.5945 48.9308C47.6166 48.8836 47.6359 48.8411 47.658 48.7987C47.679 48.7543 47.703 48.711 47.7297 48.669L49.1403 46.4781C49.1679 46.4404 49.1927 46.4168 49.2203 46.4097C49.2579 46.3999 49.2971 46.396 49.3363 46.3979H49.7531V49.9613H49.259V47.3412C49.259 47.3082 49.259 47.2705 49.259 47.2304C49.2563 47.1896 49.2563 47.1486 49.259 47.1078L47.8402 49.3293C47.8221 49.3626 47.7933 49.3907 47.7571 49.4104C47.7209 49.43 47.6788 49.4404 47.6359 49.4402H47.5558C47.5129 49.4407 47.4706 49.4305 47.4344 49.4108C47.3981 49.3911 47.3693 49.3628 47.3516 49.3293L45.8914 47.0936C45.8914 47.1361 45.8914 47.1785 45.8914 47.221C45.8914 47.2634 45.8914 47.3012 45.8914 47.3342V49.9543H45.4138V46.3979H45.8306C45.8698 46.396 45.909 46.3999 45.9466 46.4097C45.9808 46.4242 46.0081 46.4484 46.0239 46.4781L47.4648 48.6713C47.4931 48.7119 47.5171 48.7545 47.5365 48.7987Z"/>
      <path d="M52.8447 48.6216V49.9564H52.2926V46.3978H53.5237C53.7561 46.394 53.9878 46.4202 54.211 46.4756C54.3897 46.5189 54.5554 46.5945 54.6969 46.6973C54.8195 46.7937 54.914 46.9132 54.9729 47.0463C55.0381 47.1915 55.0699 47.346 55.0667 47.5015C55.0692 47.6575 55.0344 47.8124 54.9646 47.9566C54.8983 48.0931 54.7963 48.2149 54.6665 48.3127C54.5249 48.4198 54.3584 48.5002 54.1779 48.5485C53.963 48.6072 53.7382 48.6351 53.5127 48.6311L52.8447 48.6216ZM52.8447 48.2396H53.5127C53.6578 48.2412 53.8022 48.2229 53.9405 48.1854C54.0546 48.1526 54.1598 48.1004 54.2497 48.0321C54.3326 47.9668 54.3968 47.8861 54.4374 47.7962C54.4826 47.7012 54.5051 47.5993 54.5036 47.4967C54.5101 47.3978 54.4912 47.2989 54.4483 47.2068C54.4054 47.1148 54.3395 47.0318 54.2552 46.9638C54.0443 46.8231 53.7794 46.755 53.5127 46.7728H52.8447V48.2396Z"/>
      <path d="M60.2645 49.9612H59.8283C59.7846 49.9627 59.7416 49.951 59.7069 49.9282C59.6756 49.906 59.651 49.8777 59.6351 49.8457L59.2597 48.9848H57.3744L56.9852 49.8457C56.9709 49.8771 56.9471 49.9048 56.9162 49.9258C56.8811 49.95 56.837 49.9626 56.792 49.9612H56.3558L58.012 46.3974H58.5862L60.2645 49.9612ZM57.5317 48.6381H59.0886L58.4316 47.1875C58.3814 47.0784 58.3399 46.9665 58.3074 46.8526L58.2439 47.039C58.2246 47.0956 58.2025 47.1475 58.1832 47.1899L57.5317 48.6381Z"/>
      <path d="M62.6495 46.414C62.6825 46.4295 62.7109 46.4513 62.7323 46.4777L65.1476 49.1641C65.1476 49.1216 65.1476 49.0792 65.1476 49.0391C65.1476 48.999 65.1476 48.9589 65.1476 48.9211V46.3975H65.6417V49.9612H65.3657C65.3265 49.9623 65.2876 49.955 65.2525 49.94C65.2184 49.923 65.1884 49.9006 65.1642 49.874L62.7517 47.19C62.7543 47.2308 62.7543 47.2718 62.7517 47.3126C62.7517 47.3527 62.7517 47.3881 62.7517 47.4211V49.9612H62.2576V46.3975H62.5502C62.5843 46.3967 62.6182 46.4023 62.6495 46.414Z"/>
      <path d="M69.7104 48.5438V49.9589H69.1583V48.5438L67.6318 46.3975H68.1259C68.1685 46.3954 68.2106 46.4062 68.2446 46.4282C68.2747 46.4511 68.2999 46.4782 68.3192 46.5084L69.2743 47.8928C69.3129 47.9518 69.346 48.006 69.3736 48.0579C69.4012 48.1098 69.4233 48.1593 69.4426 48.2089L69.5144 48.0556C69.5412 47.9995 69.5726 47.9451 69.6083 47.8928L70.5495 46.4989C70.5693 46.4711 70.5935 46.4457 70.6213 46.4235C70.6541 46.399 70.6966 46.3864 70.74 46.3881H71.2396L69.7104 48.5438Z"/>
      <path d="M47.2632 40.417C47.5033 40.4429 47.7462 40.4642 47.9919 40.483C51.7165 39.0595 54.8673 36.7295 57.0506 33.7844C59.2338 30.8393 60.3527 27.4097 60.2672 23.9243L56.1626 20.4172C56.9972 24.1281 56.6068 27.9642 55.0351 31.4963C53.4634 35.0284 50.7724 38.1171 47.2632 40.417Z"/>
      <path d="M45.7975 40.2538L45.9079 40.2727C49.6578 37.981 52.5168 34.7808 54.1151 31.086C55.7135 27.3912 55.9776 23.3716 54.8735 19.5472L49.0271 14.5521C51.3918 18.6579 52.3436 23.253 51.7719 27.8028C51.2002 32.3527 49.1284 36.6704 45.7975 40.2538Z"/>
      <path d="M65.6251 28.0424C64.6318 31.872 62.2195 35.3259 58.7463 37.8911C57.7319 38.6444 56.6378 39.3156 55.478 39.8958C58.3062 39.1856 60.9057 37.9299 63.0761 36.2256C65.2465 34.5213 66.9298 32.4139 67.9962 30.0659L65.6251 28.0424Z"/>
      <path d="M64.6948 27.4784L61.3189 24.5941C61.2544 27.8826 60.1602 31.0963 58.15 33.9013C56.1399 36.7063 53.2871 39 49.8883 40.5442H49.9049C50.6623 40.544 51.419 40.5054 52.1711 40.4287C55.3475 39.321 58.1535 37.5587 60.3388 35.299C62.524 33.0393 64.0206 30.3525 64.6948 27.4784Z"/>
      <path d="M46.2861 12.4457L42.2587 9C38.6584 10.1887 35.562 12.2784 33.3747 14.9955C31.1875 17.7127 30.0112 20.9308 30 24.2285V24.2285C30.0135 27.8725 31.449 31.4085 34.0793 34.2769C36.7096 37.1454 40.3845 39.1824 44.5222 40.0656C48.216 36.2205 50.3786 31.4693 50.6958 26.5023C51.013 21.5353 49.4683 16.6113 46.2861 12.4457Z"/>
      <path d="M74 26.9478C73.9854 22.6244 71.9689 18.4817 68.3908 15.4247C64.8127 12.3676 59.964 10.6446 54.9039 10.6322C52.5657 10.6301 50.2473 10.9988 48.0665 11.7194L72.7247 32.7872C73.569 30.9249 74.0015 28.9449 74 26.9478Z"/>
    </symbol>
    <!-- Client4 -->
    <symbol id="client4" viewBox="0 0 104 56">
      <path d="M24.0782 21.5179H24.0753C21.6897 21.5179 19.7557 23.2615 19.7557 25.4124V25.4149C19.7557 27.5658 21.6897 29.3094 24.0753 29.3094H24.0782C26.4638 29.3094 28.3978 27.5658 28.3978 25.4149V25.4124C28.3978 23.2615 26.4638 21.5179 24.0782 21.5179Z"/>
      <path d="M55.9614 20.273C55.9546 17.2855 54.6355 14.4221 52.2928 12.3094C49.9501 10.1967 46.7745 9.00678 43.461 9V9C40.1466 9.00543 36.9696 10.1948 34.6256 12.3076C32.2817 14.4205 30.9618 17.2846 30.955 20.273V36.7472C30.955 36.7472 55.9585 34.2364 55.9614 20.2755V20.273Z"/>
      <path d="M11 42.1543C11.006 44.233 11.9243 46.225 13.5543 47.6951C15.1843 49.1652 17.3935 49.9939 19.699 50C22.004 49.9939 24.2127 49.1656 25.8426 47.696C27.4725 46.2265 28.3912 44.2351 28.398 42.1568V30.6938C28.398 30.6938 11 32.4421 11 42.1543ZM19.699 44.2081C19.2484 44.2081 18.808 44.0877 18.4334 43.862C18.0588 43.6363 17.7668 43.3155 17.5944 42.9402C17.422 42.5649 17.3769 42.152 17.4648 41.7536C17.5527 41.3552 17.7696 40.9892 18.0882 40.702C18.4068 40.4147 18.8127 40.2191 19.2546 40.1399C19.6965 40.0606 20.1545 40.1013 20.5707 40.2568C20.987 40.4122 21.3427 40.6755 21.593 41.0132C21.8433 41.351 21.9769 41.7481 21.9769 42.1543C21.9781 42.4246 21.92 42.6925 21.806 42.9426C21.692 43.1927 21.5244 43.42 21.3128 43.6115C21.1011 43.8031 20.8496 43.955 20.5727 44.0587C20.2958 44.1624 19.9988 44.2158 19.699 44.2158V44.2081Z"/>
      <path d="M35.6089 40.515V44.7806H34.73V40.515H35.6089ZM37.3081 42.3372V43.0228H35.3687V42.3372H37.3081ZM37.5132 40.515V41.2034H35.3687V40.515H37.5132ZM41.5269 42.5482V42.7503C41.5269 43.0745 41.4829 43.3655 41.395 43.6234C41.3071 43.8812 41.1831 44.1009 41.0229 44.2825C40.8628 44.4622 40.6714 44.5999 40.4487 44.6956C40.228 44.7913 39.9829 44.8392 39.7134 44.8392C39.4458 44.8392 39.2007 44.7913 38.978 44.6956C38.7573 44.5999 38.5659 44.4622 38.4038 44.2825C38.2417 44.1009 38.1157 43.8812 38.0259 43.6234C37.938 43.3655 37.894 43.0745 37.894 42.7503V42.5482C37.894 42.222 37.938 41.931 38.0259 41.6751C38.1138 41.4173 38.2378 41.1976 38.3979 41.0159C38.5601 40.8343 38.7515 40.6956 38.9722 40.5999C39.1948 40.5042 39.4399 40.4564 39.7075 40.4564C39.9771 40.4564 40.2222 40.5042 40.4429 40.5999C40.6655 40.6956 40.8569 40.8343 41.0171 41.0159C41.1792 41.1976 41.3042 41.4173 41.3921 41.6751C41.4819 41.931 41.5269 42.222 41.5269 42.5482ZM40.6392 42.7503V42.5423C40.6392 42.3157 40.6187 42.1165 40.5776 41.9446C40.5366 41.7728 40.4761 41.6282 40.396 41.511C40.3159 41.3939 40.2183 41.306 40.103 41.2474C39.9878 41.1868 39.856 41.1566 39.7075 41.1566C39.5591 41.1566 39.4272 41.1868 39.312 41.2474C39.1987 41.306 39.1021 41.3939 39.022 41.511C38.9438 41.6282 38.8843 41.7728 38.8433 41.9446C38.8022 42.1165 38.7817 42.3157 38.7817 42.5423V42.7503C38.7817 42.9749 38.8022 43.1741 38.8433 43.348C38.8843 43.5198 38.9448 43.6653 39.0249 43.7845C39.105 43.9017 39.2026 43.9905 39.3179 44.0511C39.4331 44.1116 39.5649 44.1419 39.7134 44.1419C39.8618 44.1419 39.9937 44.1116 40.1089 44.0511C40.2241 43.9905 40.3208 43.9017 40.3989 43.7845C40.4771 43.6653 40.5366 43.5198 40.5776 43.348C40.6187 43.1741 40.6392 42.9749 40.6392 42.7503ZM44.3804 43.6644C44.3804 43.5882 44.3687 43.5198 44.3452 43.4593C44.3237 43.3968 44.2827 43.3401 44.2222 43.2894C44.1616 43.2366 44.0767 43.1849 43.9673 43.1341C43.8579 43.0833 43.7163 43.0306 43.5425 42.9759C43.3491 42.9134 43.1655 42.8431 42.9917 42.765C42.8198 42.6868 42.6675 42.596 42.5347 42.4925C42.4038 42.387 42.3003 42.265 42.2241 42.1263C42.1499 41.9876 42.1128 41.8265 42.1128 41.6429C42.1128 41.4651 42.1519 41.304 42.23 41.1595C42.3081 41.013 42.4175 40.888 42.5581 40.7845C42.6987 40.679 42.8647 40.598 43.0562 40.5413C43.2495 40.4847 43.4614 40.4564 43.6919 40.4564C44.0063 40.4564 44.2808 40.513 44.5151 40.6263C44.7495 40.7396 44.9312 40.8948 45.0601 41.0921C45.1909 41.2894 45.2563 41.515 45.2563 41.7689H44.3833C44.3833 41.6439 44.3569 41.5345 44.3042 41.4407C44.2534 41.345 44.1753 41.2698 44.0698 41.2151C43.9663 41.1605 43.8354 41.1331 43.6772 41.1331C43.5249 41.1331 43.3979 41.1566 43.2964 41.2034C43.1948 41.2484 43.1187 41.3099 43.0679 41.388C43.0171 41.4642 42.9917 41.5501 42.9917 41.6458C42.9917 41.7181 43.0093 41.7835 43.0444 41.8421C43.0815 41.9007 43.1362 41.9554 43.2085 42.0062C43.2808 42.0569 43.3696 42.1048 43.4751 42.1497C43.5806 42.1946 43.7026 42.2386 43.8413 42.2816C44.0737 42.3519 44.2778 42.431 44.4536 42.5189C44.6313 42.6068 44.7798 42.7054 44.8989 42.8148C45.0181 42.9241 45.1079 43.0482 45.1685 43.1868C45.229 43.3255 45.2593 43.4827 45.2593 43.6585C45.2593 43.8441 45.2231 44.0101 45.1509 44.1566C45.0786 44.303 44.9741 44.4271 44.8374 44.5286C44.7007 44.6302 44.5376 44.7073 44.3481 44.7601C44.1587 44.8128 43.9468 44.8392 43.7124 44.8392C43.5015 44.8392 43.2935 44.8118 43.0884 44.7571C42.8833 44.7005 42.6968 44.6155 42.5288 44.5023C42.3628 44.389 42.23 44.2444 42.1304 44.0687C42.0308 43.8929 41.981 43.6849 41.981 43.4446H42.8628C42.8628 43.5775 42.8833 43.6898 42.9243 43.7816C42.9653 43.8734 43.0229 43.9476 43.0972 44.0042C43.1733 44.0609 43.2632 44.1019 43.3667 44.1273C43.4722 44.1526 43.5874 44.1653 43.7124 44.1653C43.8647 44.1653 43.9897 44.1439 44.0874 44.1009C44.187 44.0579 44.2603 43.9984 44.3071 43.9222C44.356 43.846 44.3804 43.7601 44.3804 43.6644ZM47.7642 40.515V44.7806H46.8882V40.515H47.7642ZM49.0767 40.515V41.2034H45.5962V40.515H49.0767ZM52.4399 44.095V44.7806H50.1694V44.095H52.4399ZM50.4565 40.515V44.7806H49.5776V40.515H50.4565ZM52.144 42.2523V42.9202H50.1694V42.2523H52.144ZM52.437 40.515V41.2034H50.1694V40.515H52.437ZM52.9526 40.515H54.5435C54.8696 40.515 55.1499 40.5638 55.3843 40.6614C55.6206 40.7591 55.8022 40.9036 55.9292 41.095C56.0562 41.2864 56.1196 41.5218 56.1196 41.8011C56.1196 42.0296 56.0806 42.2259 56.0024 42.39C55.9263 42.5521 55.8179 42.6878 55.6772 42.7972C55.5386 42.9046 55.3755 42.9905 55.188 43.055L54.9097 43.2015H53.5269L53.521 42.5159H54.5493C54.7036 42.5159 54.8315 42.4886 54.9331 42.4339C55.0347 42.3792 55.1108 42.303 55.1616 42.2054C55.2144 42.1077 55.2407 41.9944 55.2407 41.8655C55.2407 41.7288 55.2153 41.6107 55.1646 41.511C55.1138 41.4114 55.0366 41.3353 54.9331 41.2825C54.8296 41.2298 54.6997 41.2034 54.5435 41.2034H53.8315V44.7806H52.9526V40.515ZM55.3374 44.7806L54.3647 42.8792L55.2935 42.8734L56.2778 44.7396V44.7806H55.3374ZM59.9517 43.2601H58.8647V42.5745H59.9517C60.1196 42.5745 60.2563 42.5472 60.3618 42.4925C60.4673 42.4359 60.5444 42.3577 60.5933 42.2581C60.6421 42.1585 60.6665 42.0462 60.6665 41.9212C60.6665 41.7943 60.6421 41.6761 60.5933 41.5667C60.5444 41.4573 60.4673 41.3694 60.3618 41.303C60.2563 41.2366 60.1196 41.2034 59.9517 41.2034H59.1694V44.7806H58.2905V40.515H59.9517C60.2856 40.515 60.5718 40.5755 60.8101 40.6966C61.0503 40.8157 61.2339 40.9808 61.3608 41.1917C61.4878 41.4026 61.5513 41.6439 61.5513 41.9153C61.5513 42.1907 61.4878 42.429 61.3608 42.6302C61.2339 42.8314 61.0503 42.9866 60.8101 43.096C60.5718 43.2054 60.2856 43.2601 59.9517 43.2601ZM65.02 44.095V44.7806H62.7495V44.095H65.02ZM63.0366 40.515V44.7806H62.1577V40.515H63.0366ZM64.7241 42.2523V42.9202H62.7495V42.2523H64.7241ZM65.0171 40.515V41.2034H62.7495V40.515H65.0171ZM67.4985 40.515V44.7806H66.6226V40.515H67.4985ZM68.811 40.515V41.2034H65.3306V40.515H68.811ZM72.1743 44.095V44.7806H69.9038V44.095H72.1743ZM70.1909 40.515V44.7806H69.312V40.515H70.1909ZM71.8784 42.2523V42.9202H69.9038V42.2523H71.8784ZM72.1714 40.515V41.2034H69.9038V40.515H72.1714ZM72.687 40.515H74.2778C74.604 40.515 74.8843 40.5638 75.1187 40.6614C75.355 40.7591 75.5366 40.9036 75.6636 41.095C75.7905 41.2864 75.854 41.5218 75.854 41.8011C75.854 42.0296 75.8149 42.2259 75.7368 42.39C75.6606 42.5521 75.5522 42.6878 75.4116 42.7972C75.2729 42.9046 75.1099 42.9905 74.9224 43.055L74.644 43.2015H73.2612L73.2554 42.5159H74.2837C74.438 42.5159 74.5659 42.4886 74.6675 42.4339C74.769 42.3792 74.8452 42.303 74.896 42.2054C74.9487 42.1077 74.9751 41.9944 74.9751 41.8655C74.9751 41.7288 74.9497 41.6107 74.8989 41.511C74.8481 41.4114 74.771 41.3353 74.6675 41.2825C74.564 41.2298 74.4341 41.2034 74.2778 41.2034H73.5659V44.7806H72.687V40.515ZM75.0718 44.7806L74.0991 42.8792L75.0278 42.8734L76.0122 44.7396V44.7806H75.0718ZM78.7515 43.6644C78.7515 43.5882 78.7397 43.5198 78.7163 43.4593C78.6948 43.3968 78.6538 43.3401 78.5933 43.2894C78.5327 43.2366 78.4478 43.1849 78.3384 43.1341C78.229 43.0833 78.0874 43.0306 77.9136 42.9759C77.7202 42.9134 77.5366 42.8431 77.3628 42.765C77.1909 42.6868 77.0386 42.596 76.9058 42.4925C76.7749 42.387 76.6714 42.265 76.5952 42.1263C76.521 41.9876 76.4839 41.8265 76.4839 41.6429C76.4839 41.4651 76.5229 41.304 76.6011 41.1595C76.6792 41.013 76.7886 40.888 76.9292 40.7845C77.0698 40.679 77.2358 40.598 77.4272 40.5413C77.6206 40.4847 77.8325 40.4564 78.063 40.4564C78.3774 40.4564 78.6519 40.513 78.8862 40.6263C79.1206 40.7396 79.3022 40.8948 79.4312 41.0921C79.562 41.2894 79.6274 41.515 79.6274 41.7689H78.7544C78.7544 41.6439 78.728 41.5345 78.6753 41.4407C78.6245 41.345 78.5464 41.2698 78.4409 41.2151C78.3374 41.1605 78.2065 41.1331 78.0483 41.1331C77.896 41.1331 77.769 41.1566 77.6675 41.2034C77.5659 41.2484 77.4897 41.3099 77.439 41.388C77.3882 41.4642 77.3628 41.5501 77.3628 41.6458C77.3628 41.7181 77.3804 41.7835 77.4155 41.8421C77.4526 41.9007 77.5073 41.9554 77.5796 42.0062C77.6519 42.0569 77.7407 42.1048 77.8462 42.1497C77.9517 42.1946 78.0737 42.2386 78.2124 42.2816C78.4448 42.3519 78.6489 42.431 78.8247 42.5189C79.0024 42.6068 79.1509 42.7054 79.27 42.8148C79.3892 42.9241 79.479 43.0482 79.5396 43.1868C79.6001 43.3255 79.6304 43.4827 79.6304 43.6585C79.6304 43.8441 79.5942 44.0101 79.522 44.1566C79.4497 44.303 79.3452 44.4271 79.2085 44.5286C79.0718 44.6302 78.9087 44.7073 78.7192 44.7601C78.5298 44.8128 78.3179 44.8392 78.0835 44.8392C77.8726 44.8392 77.6646 44.8118 77.4595 44.7571C77.2544 44.7005 77.0679 44.6155 76.8999 44.5023C76.7339 44.389 76.6011 44.2444 76.5015 44.0687C76.4019 43.8929 76.3521 43.6849 76.3521 43.4446H77.2339C77.2339 43.5775 77.2544 43.6898 77.2954 43.7816C77.3364 43.8734 77.394 43.9476 77.4683 44.0042C77.5444 44.0609 77.6343 44.1019 77.7378 44.1273C77.8433 44.1526 77.9585 44.1653 78.0835 44.1653C78.2358 44.1653 78.3608 44.1439 78.4585 44.1009C78.5581 44.0579 78.6313 43.9984 78.6782 43.9222C78.7271 43.846 78.7515 43.7601 78.7515 43.6644Z"/>
    </symbol>
    <!-- Client5 -->
    <symbol id="client5" viewBox="0 0 104 56">
      <path d="M26.7919 44.373C27.0374 44.6465 27.1681 44.9891 27.1613 45.3407C27.1738 45.57 27.1288 45.7989 27.0298 46.0105C26.9307 46.2221 26.78 46.4109 26.5889 46.563C26.112 46.8872 25.5213 47.0457 24.925 47.0093H22V40.8769H24.8651C25.4307 40.8431 25.9918 40.9871 26.4525 41.2844C26.6375 41.4238 26.784 41.6 26.8805 41.7991C26.9769 41.9982 27.0206 42.2148 27.0082 42.4317C27.025 42.77 26.907 43.1026 26.6754 43.3694C26.4531 43.6131 26.1459 43.782 25.8036 43.8488C26.1916 43.9125 26.5419 44.0983 26.7919 44.373ZM23.361 43.4473H24.5856C24.8639 43.4659 25.1404 43.3935 25.3643 43.2436C25.4562 43.1686 25.5278 43.0755 25.5734 42.9716C25.619 42.8677 25.6374 42.7558 25.6272 42.6445C25.6358 42.5335 25.617 42.4222 25.5722 42.3186C25.5273 42.215 25.4574 42.1217 25.3676 42.0453C25.137 41.8911 24.852 41.8177 24.5657 41.8386H23.361V43.4473ZM25.4841 45.799C25.5824 45.7222 25.6596 45.6261 25.7099 45.518C25.7601 45.4099 25.7819 45.2928 25.7736 45.1759C25.7811 45.0576 25.7583 44.9394 25.7069 44.8303C25.6556 44.7212 25.5771 44.6242 25.4774 44.5468C25.2379 44.3869 24.9432 44.3084 24.6455 44.3251H23.361V46.0117H24.6622C24.955 46.0269 25.2449 45.9519 25.4841 45.799Z"/>
      <path d="M32.6487 47.0093L31.0547 44.6127H30.4557V47.0093H29.0847V40.8769H31.6803C32.3346 40.8358 32.9814 41.0224 33.4873 41.3982C33.8501 41.731 34.0689 42.1696 34.1043 42.6348C34.1397 43.1001 33.9893 43.5614 33.6803 43.9357C33.36 44.2659 32.9226 44.4861 32.4424 44.5588L34.1395 47.0093H32.6487ZM30.4557 43.7769H31.5772C32.3558 43.7769 32.7452 43.4673 32.7452 42.8482C32.7531 42.7217 32.7318 42.5952 32.6825 42.4766C32.6333 42.358 32.5571 42.2499 32.459 42.1591C32.2129 41.9749 31.896 41.8855 31.5772 41.9105H30.4424L30.4557 43.7769Z"/>
      <path d="M40.1426 45.7751H37.4106L36.928 47.0093H35.4905L37.9996 40.9458H39.5536L42.0527 47.0093H40.6151L40.1426 45.7751ZM39.7766 44.8464L38.7782 42.258L37.7799 44.8464H39.7766Z"/>
      <path d="M49.5234 47.0093H48.1624L45.1109 42.8391V47.0093H43.7532V40.8769H45.1109L48.1624 45.071V40.8769H49.5234V47.0093Z"/>
      <path d="M57.2903 45.5414C57.0089 46.0044 56.5801 46.381 56.059 46.6229C55.4666 46.8923 54.8091 47.0251 54.1456 47.0094H51.723V40.8769H54.1456C54.8079 40.8614 55.4646 40.9909 56.059 41.2544C56.58 41.4908 57.0092 41.8637 57.2903 42.3239C57.5704 42.8227 57.7164 43.3738 57.7164 43.9327C57.7164 44.4916 57.5704 45.0426 57.2903 45.5414ZM55.7329 45.3946C56.1213 44.9872 56.3349 44.4681 56.3349 43.9312C56.3349 43.3943 56.1213 42.8751 55.7329 42.4677C55.2634 42.0987 54.6511 41.9114 54.0291 41.9464H53.0841V45.9159H54.0291C54.6511 45.9509 55.2634 45.7636 55.7329 45.3946Z"/>
      <path d="M40.9945 6.76667C40.9945 6.76667 58.5614 12.7373 58.1887 21.3772V35.9907C58.1887 35.9907 40.6351 30.0171 41.0012 21.3772L40.9945 6.76667Z"/>
      <path d="M73.8389 32.5694C77.1565 30.5139 80.9941 29.2408 85 28.8666V24.292C80.3842 25.8935 76.4686 28.7975 73.8389 32.5694Z"/>
      <path d="M71.8456 33.9477C74.5611 29.0252 79.2686 25.2268 85 23.3336V10.152C85 10.152 59.9823 18.6571 60.5114 30.9609V51.7667C60.5114 51.7667 61.6262 51.3863 63.3799 50.6733C63.3799 50.0082 63.3799 49.3371 63.4598 48.6631C63.9776 42.9511 66.9939 37.658 71.8456 33.9477Z"/>
      <path d="M69.4663 41.6768C69.5978 40.2339 69.891 38.8066 70.3415 37.4168C67.3205 40.621 65.491 44.5971 65.1104 48.7859C65.0738 49.1813 65.0538 49.5768 65.0438 49.9842C66.4648 49.3701 68.1186 48.6031 69.8557 47.7014C69.4124 45.7196 69.2813 43.6915 69.4663 41.6768Z"/>
      <path d="M70.4612 41.7517C70.2947 43.5745 70.3988 45.4091 70.7707 47.2071C77.6058 43.5253 85.2861 37.8362 84.99 30.9609V30.3617C80.1066 30.8536 75.5377 32.7755 71.9853 35.832C71.1536 37.7262 70.6399 39.7213 70.4612 41.7517Z"/>
    </symbol>
    <!-- Client6 -->
    <symbol id="client6" viewBox="0 0 104 56">
      <path d="M53.5293 27.4432C53.0853 26.8523 52.8729 26.1541 52.9233 25.4512V22.5631C52.9233 21.6778 53.1242 21.005 53.5259 20.5447C53.9277 20.0844 54.6177 19.8552 55.596 19.8572C56.5153 19.8572 57.1679 20.0531 57.5537 20.4448C57.9746 20.9446 58.1794 21.5558 58.1325 22.1724V22.8511H56.488V22.1636C56.4939 21.9385 56.4779 21.7135 56.4404 21.4907C56.4167 21.3384 56.3339 21.1976 56.2055 21.0912C56.0366 20.9765 55.8239 20.9209 55.6096 20.9355C55.3843 20.921 55.1609 20.9796 54.9832 21.1C54.8399 21.2179 54.7444 21.3724 54.7108 21.5407C54.6636 21.7764 54.642 22.0154 54.6461 22.2546V25.7597C54.6202 26.0978 54.6927 26.4362 54.8572 26.7439C54.939 26.8481 55.0526 26.9306 55.1854 26.9825C55.3182 27.0343 55.465 27.0534 55.6096 27.0377C55.8203 27.0527 56.0293 26.9957 56.1918 26.8791C56.3258 26.7643 56.412 26.6145 56.437 26.4531C56.4754 26.2205 56.4925 25.9857 56.488 25.7509V25.0399H58.1325V25.6892C58.1787 26.3318 57.9789 26.9698 57.5639 27.5049C57.186 27.9338 56.5425 28.1483 55.596 28.1483C54.6495 28.1483 53.9345 27.9191 53.5293 27.4432Z"/>
      <path d="M60.3763 27.4726C59.961 27.0231 59.7533 26.3679 59.7533 25.5012V22.4632C59.7533 21.6053 59.961 20.956 60.3763 20.5153C60.7917 20.0746 61.4863 19.8552 62.46 19.8572C63.4269 19.8572 64.1181 20.0766 64.5334 20.5153C64.9488 20.956 65.1599 21.6053 65.1599 22.4632V25.5012C65.1599 26.3591 64.9488 27.0172 64.5266 27.4696C64.1044 27.9221 63.4167 28.1483 62.46 28.1483C61.5033 28.1483 60.7951 27.9191 60.3763 27.4726ZM63.226 26.7439C63.3748 26.4624 63.4425 26.1539 63.4235 25.8449V22.1254C63.4426 21.8223 63.376 21.5198 63.2294 21.244C63.146 21.1376 63.0296 21.0537 62.8936 21.0018C62.7575 20.9498 62.6073 20.9319 62.46 20.9502C62.3123 20.9324 62.1617 20.9505 62.0252 21.0024C61.8887 21.0543 61.7717 21.1379 61.6871 21.244C61.5374 21.519 61.4695 21.822 61.4897 22.1254V25.8625C61.469 26.1717 61.5368 26.4804 61.6871 26.7616C61.783 26.8563 61.9013 26.9323 62.034 26.9843C62.1667 27.0364 62.3108 27.0633 62.4566 27.0633C62.6024 27.0633 62.7465 27.0364 62.8792 26.9843C63.0119 26.9323 63.1302 26.8563 63.226 26.7616V26.7439Z"/>
      <path d="M67.1378 19.946H68.9083L70.2395 25.5511L71.6014 19.946H73.3242L73.4978 28.0364H72.2244L72.0883 22.4136L70.774 28.0364H69.7526L68.3907 22.3931L68.2648 28.0364H66.9778L67.1378 19.946Z"/>
      <path d="M75.4829 19.946H78.2406C79.8295 19.946 80.6239 20.7117 80.6239 22.2432C80.6239 23.7101 79.7875 24.4426 78.1147 24.4406H77.175V28.0364H75.4727L75.4829 19.946ZM77.8389 23.4036C78.0071 23.422 78.1779 23.4087 78.3396 23.3646C78.5012 23.3205 78.6499 23.2466 78.7752 23.148C78.9704 22.8748 79.0565 22.5539 79.0203 22.2344C79.0292 21.9876 79.0018 21.7408 78.9386 21.5C78.9143 21.4196 78.8717 21.3441 78.8133 21.278C78.7548 21.2119 78.6817 21.1566 78.5981 21.1152C78.3618 21.0173 78.1006 20.9729 77.8389 20.9859H77.1784V23.4036H77.8389Z"/>
      <path d="M83.0787 19.946H84.907L86.783 28.0364H85.1964L84.8253 26.1709H83.1945L82.8132 28.0364H81.2028L83.0787 19.946ZM84.6415 25.2338L84.0048 21.8378L83.3681 25.2338H84.6415Z"/>
      <path d="M88.2981 19.946H89.4897L91.7709 24.5611V19.946H93.1838V28.0364H92.0501L89.7553 23.2186V28.0364H88.2947L88.2981 19.946Z"/>
      <path d="M96.4932 24.9515L94.5968 19.9572H96.1936L97.3512 23.1653L98.4373 19.9572H100L98.1274 24.9515V28.0363H96.4932V24.9515Z"/>
      <path d="M56.1579 31.5736V31.9966H54.7688V35.2841H54.1866V31.9966H52.7906V31.5736H56.1579Z"/>
      <path d="M60.5123 35.2844H60.0629C60.0173 35.2869 59.9722 35.2743 59.9369 35.2492C59.9029 35.2276 59.8769 35.198 59.862 35.164L59.4603 34.2827H57.5332L57.1314 35.164C57.12 35.2008 57.0991 35.235 57.0702 35.2639C57.0345 35.2885 56.9897 35.301 56.9442 35.2991H56.4948L58.1971 31.5887H58.7895L60.5123 35.2844ZM57.6932 33.9066H59.3003L58.6193 32.3966C58.5691 32.2824 58.527 32.1657 58.4933 32.047C58.4695 32.1175 58.4491 32.1851 58.4286 32.2438L58.3674 32.3995L57.6932 33.9066Z"/>
      <path d="M63.4472 34.9201C63.5538 34.9249 63.6606 34.9249 63.7672 34.9201C63.8593 34.9119 63.9504 34.8972 64.0396 34.876C64.123 34.8584 64.2049 34.8358 64.2848 34.8084C64.3597 34.782 64.4346 34.7497 64.5129 34.7174V33.8829H63.8319C63.8151 33.8837 63.7982 33.8816 63.7824 33.8765C63.7666 33.8714 63.7522 33.8636 63.74 33.8535C63.7288 33.8452 63.72 33.8348 63.7141 33.8231C63.7082 33.8114 63.7054 33.7987 63.706 33.7859V33.5009H65.027V34.923C64.9192 34.9896 64.8053 35.0485 64.6865 35.0993C64.5651 35.151 64.4386 35.1933 64.3086 35.2257C64.1694 35.261 64.027 35.2865 63.883 35.302C63.7179 35.3179 63.552 35.3257 63.3859 35.3256C63.0923 35.3277 62.8009 35.2808 62.5279 35.1875C62.273 35.099 62.0414 34.9671 61.847 34.7996C61.6574 34.6304 61.5082 34.4308 61.4078 34.212C61.3005 33.966 61.2474 33.705 61.2512 33.4422C61.2476 33.1778 61.2995 32.915 61.4044 32.6665C61.5023 32.4466 61.6518 32.2465 61.8436 32.0789C62.0379 31.9119 62.2696 31.781 62.5245 31.694C62.8161 31.5993 63.1255 31.5525 63.437 31.5559C63.5955 31.5557 63.7537 31.5665 63.9102 31.5882C64.0486 31.6077 64.1844 31.6392 64.3154 31.6822C64.4345 31.7208 64.5486 31.7701 64.6559 31.8291C64.7602 31.8871 64.8593 31.9519 64.9521 32.023L64.7887 32.2522C64.7759 32.2732 64.7568 32.2907 64.7334 32.3031C64.7101 32.3155 64.6833 32.3223 64.6559 32.3227C64.6182 32.3217 64.5816 32.3115 64.5503 32.2934C64.4993 32.2699 64.4448 32.2405 64.3835 32.2052C64.3111 32.166 64.2348 32.1326 64.1554 32.1053C64.0539 32.0702 63.9491 32.0427 63.8421 32.023C63.6995 32.0004 63.5547 31.9896 63.4097 31.9907C63.1851 31.9886 62.9621 32.0235 62.7526 32.0936C62.5632 32.1591 62.3924 32.2594 62.2522 32.3874C62.1111 32.5208 62.0033 32.6778 61.9355 32.8487C61.7834 33.2505 61.7834 33.6838 61.9355 34.0856C62.01 34.2601 62.126 34.4193 62.276 34.5528C62.4156 34.6801 62.5851 34.7803 62.7731 34.8466C62.9896 34.9108 63.219 34.9358 63.4472 34.9201Z"/>
      <path d="M68.8744 34.8611H70.7334V35.2841H68.3058V31.5736H68.888L68.8744 34.8611Z"/>
      <path d="M72.6672 35.2841H72.085V31.5736H72.6672V35.2841Z"/>
      <path d="M74.8325 31.5912C74.8671 31.6082 74.8973 31.6312 74.9211 31.6588L77.4098 34.4558C77.4065 34.4118 77.4065 34.3676 77.4098 34.3236C77.4098 34.2825 77.4098 34.2414 77.4098 34.2032V31.5589H77.9171V35.2844H77.6243C77.581 35.2874 77.5374 35.2803 77.4984 35.2638C77.463 35.2453 77.4319 35.2214 77.4064 35.1933L74.9211 32.3992C74.9211 32.4432 74.9211 32.4844 74.9211 32.5255C74.9211 32.5666 74.9211 32.6048 74.9211 32.6401V35.2844H74.4342V31.5736H74.7372C74.7701 31.5736 74.8025 31.5796 74.8325 31.5912Z"/>
      <path d="M82.2037 31.5736V31.9819H80.1405V33.2071H81.8122V33.6007H80.1405V34.867H82.2037V35.2754H79.5413V31.5736H82.2037Z"/>
      <path d="M21.1952 8.65865L47.047 14.9927V37.1883L21.1952 30.8572V8.65865ZM19.5371 6.76667V31.9354L48.7017 39.0832V13.9174L19.5371 6.76667Z"/>
      <path d="M35.168 50.7667L6 43.6129V18.4468L35.168 25.5977V50.7667Z"/>
      <path d="M20.0205 8.37365L45.5352 14.6283L34.6845 23.994L9.16636 17.7365L20.0205 8.37365ZM19.537 6.76667L6 18.4474L35.168 25.598L48.7016 13.9173L19.537 6.76667Z"/>
      <path d="M36.8091 49.3508L48.7016 39.0862L36.8091 36.169V49.3508Z"/>
    </symbol>
    <!-- Modal close icon -->
    <symbol id="icon-close" viewBox="0 0 8 8">
      <path d="M8 0.805714L7.19429 0L4 3.19429L0.805714 0L0 0.805714L3.19429 4L0 7.19429L0.805714 8L4 4.80571L7.19429 8L8 7.19429L4.80571 4L8 0.805714Z"/>
    </symbol>
  </defs>
</svg>



